<?xml version="1.0" encoding="UTF-8" standalone="no"?><!DOCTYPE svg PUBLIC "-//W3C//DTD SVG 1.1//EN" "http://www.w3.org/Graphics/SVG/1.1/DTD/svg11.dtd"><svg width="100%" height="100%" viewBox="0 0 2233 423" version="1.1" xmlns="http://www.w3.org/2000/svg" xmlns:xlink="http://www.w3.org/1999/xlink" xml:space="preserve" xmlns:serif="http://www.serif.com/" style="fill-rule:evenodd;clip-rule:evenodd;stroke-linejoin:round;stroke-miterlimit:2;"><g><g><g><g><path d="M256.511,231.41c0,19.523 -5.027,37.064 -15.082,52.623c-10.055,15.559 -24.77,27.743 -44.146,36.55c-19.376,8.807 -42.348,13.211 -68.917,13.211c-31.853,0 -58.128,-6.018 -78.825,-18.055c-14.679,-8.66 -26.605,-20.22 -35.779,-34.678c-9.174,-14.459 -13.761,-28.513 -13.761,-42.165c0,-7.927 2.752,-14.715 8.257,-20.367c5.505,-5.651 12.514,-8.477 21.027,-8.477c6.899,0 12.734,2.202 17.504,6.605c4.771,4.404 8.844,10.936 12.22,19.596c4.11,10.275 8.55,18.862 13.321,25.761c4.771,6.899 11.486,12.587 20.147,17.064c8.66,4.477 20.036,6.716 34.128,6.716c19.376,0 35.119,-4.514 47.229,-13.541c12.11,-9.027 18.165,-20.293 18.165,-33.798c0,-10.715 -3.266,-19.413 -9.798,-26.091c-6.532,-6.679 -14.972,-11.78 -25.321,-15.303c-10.349,-3.523 -24.183,-7.266 -41.504,-11.229c-23.192,-5.431 -42.605,-11.78 -58.238,-19.046c-15.633,-7.266 -28.036,-17.174 -37.211,-29.724c-9.174,-12.55 -13.761,-28.146 -13.761,-46.788c0,-17.761 4.844,-33.541 14.532,-47.339c9.688,-13.798 23.706,-24.403 42.055,-31.816c18.348,-7.413 39.926,-11.119 64.733,-11.119c19.816,0 36.954,2.459 51.412,7.376c14.459,4.917 26.458,11.449 36,19.596c9.541,8.147 16.514,16.697 20.917,25.651c4.404,8.954 6.605,17.688 6.605,26.202c0,7.78 -2.752,14.789 -8.257,21.027c-5.505,6.238 -12.367,9.358 -20.587,9.358c-7.486,0 -13.174,-1.872 -17.064,-5.615c-3.89,-3.743 -8.11,-9.871 -12.66,-18.385c-5.871,-12.183 -12.917,-21.688 -21.137,-28.513c-8.22,-6.826 -21.431,-10.238 -39.633,-10.238c-16.881,0 -30.495,3.706 -40.844,11.119c-10.349,7.413 -15.523,16.33 -15.523,26.752c0,6.459 1.761,12.037 5.284,16.734c3.523,4.697 8.367,8.734 14.532,12.11c6.165,3.376 12.404,6.018 18.715,7.927c6.312,1.908 16.734,4.697 31.266,8.367c18.202,4.257 34.678,8.954 49.431,14.092c14.752,5.138 27.302,11.376 37.651,18.715c10.349,7.339 18.422,16.624 24.22,27.853c5.798,11.229 8.697,24.991 8.697,41.284Z" style="fill:#e6ebf9;fill-rule:nonzero;"/><path d="M363.299,123.081l0,7.266c11.303,-13.945 23.046,-24.183 35.229,-30.715c12.183,-6.532 25.981,-9.798 41.394,-9.798c18.495,0 35.523,4.771 51.082,14.312c15.559,9.541 27.853,23.486 36.88,41.834c9.027,18.348 13.541,40.073 13.541,65.174c0,18.495 -2.605,35.486 -7.816,50.972c-5.211,15.486 -12.367,28.477 -21.468,38.972c-9.101,10.495 -19.853,18.569 -32.256,24.22c-12.404,5.651 -25.724,8.477 -39.963,8.477c-17.174,0 -31.596,-3.45 -43.266,-10.349c-11.67,-6.899 -22.789,-17.027 -33.357,-30.385l0,90.274c0,26.422 -9.615,39.633 -28.844,39.633c-11.303,0 -18.789,-3.413 -22.458,-10.238c-3.67,-6.826 -5.505,-16.77 -5.505,-29.835l0,-259.373c0,-11.449 2.495,-20 7.486,-25.651c4.991,-5.651 11.816,-8.477 20.477,-8.477c8.514,0 15.449,2.899 20.807,8.697c5.358,5.798 8.037,14.128 8.037,24.991Zm117.797,87.412c0,-15.853 -2.422,-29.468 -7.266,-40.844c-4.844,-11.376 -11.559,-20.11 -20.147,-26.202c-8.587,-6.092 -18.092,-9.138 -28.513,-9.138c-16.587,0 -30.568,6.532 -41.944,19.596c-11.376,13.064 -17.064,32.293 -17.064,57.687c0,23.926 5.651,42.532 16.954,55.816c11.303,13.284 25.321,19.926 42.055,19.926c9.982,0 19.229,-2.899 27.743,-8.697c8.514,-5.798 15.339,-14.495 20.477,-26.091c5.138,-11.596 7.706,-25.614 7.706,-42.055Z" style="fill:#e6ebf9;fill-rule:nonzero;"/><path d="M589.644,297.244l0,-260.694c0,-12.037 2.679,-21.137 8.037,-27.302c5.358,-6.165 12.587,-9.248 21.688,-9.248c9.101,0 16.44,3.046 22.018,9.138c5.578,6.092 8.367,15.229 8.367,27.413l0,260.694c0,12.183 -2.826,21.321 -8.477,27.413c-5.651,6.092 -12.954,9.138 -21.908,9.138c-8.807,0 -15.963,-3.156 -21.468,-9.468c-5.505,-6.312 -8.257,-15.339 -8.257,-27.082Z" style="fill:#e6ebf9;fill-rule:nonzero;"/><path d="M863.77,299.886c-14.532,11.303 -28.587,19.78 -42.165,25.431c-13.578,5.651 -28.807,8.477 -45.688,8.477c-15.413,0 -28.954,-3.046 -40.623,-9.138c-11.67,-6.092 -20.66,-14.348 -26.972,-24.77c-6.312,-10.422 -9.468,-21.725 -9.468,-33.908c0,-16.44 5.211,-30.458 15.633,-42.055c10.422,-11.596 24.734,-19.376 42.935,-23.339c3.816,-0.881 13.284,-2.862 28.403,-5.945c15.119,-3.083 28.073,-5.908 38.862,-8.477c10.789,-2.569 22.495,-5.688 35.119,-9.358c-0.734,-15.853 -3.927,-27.486 -9.578,-34.899c-5.651,-7.413 -17.358,-11.119 -35.119,-11.119c-15.266,0 -26.752,2.128 -34.458,6.385c-7.706,4.257 -14.312,10.642 -19.816,19.156c-5.505,8.514 -9.394,14.128 -11.67,16.844c-2.275,2.716 -7.156,4.073 -14.642,4.073c-6.752,0 -12.587,-2.165 -17.504,-6.495c-4.917,-4.33 -7.376,-9.871 -7.376,-16.624c0,-10.569 3.743,-20.844 11.229,-30.825c7.486,-9.982 19.156,-18.202 35.009,-24.66c15.853,-6.459 35.596,-9.688 59.229,-9.688c26.422,0 47.192,3.119 62.311,9.358c15.119,6.238 25.798,16.11 32.036,29.614c6.238,13.504 9.358,31.412 9.358,53.724c0,14.092 -0.037,26.055 -0.11,35.889c-0.073,9.835 -0.183,20.77 -0.33,32.807c0,11.303 1.872,23.082 5.615,35.339c3.743,12.257 5.615,20.147 5.615,23.669c0,6.165 -2.899,11.78 -8.697,16.844c-5.798,5.064 -12.367,7.596 -19.706,7.596c-6.165,0 -12.257,-2.899 -18.275,-8.697c-6.018,-5.798 -12.404,-14.202 -19.156,-25.211Zm-3.963,-86.971c-8.807,3.229 -21.614,6.642 -38.422,10.238c-16.807,3.596 -28.44,6.238 -34.899,7.927c-6.459,1.688 -12.624,4.991 -18.495,9.908c-5.871,4.917 -8.807,11.78 -8.807,20.587c0,9.101 3.45,16.844 10.349,23.229c6.899,6.385 15.926,9.578 27.082,9.578c11.89,0 22.862,-2.605 32.917,-7.816c10.055,-5.211 17.431,-11.926 22.128,-20.147c5.431,-9.101 8.147,-24.073 8.147,-44.917l0,-8.587Z" style="fill:#e6ebf9;fill-rule:nonzero;"/><path d="M1173.344,255.19c0,16.587 -4.037,30.789 -12.11,42.605c-8.073,11.816 -20,20.77 -35.779,26.862c-15.78,6.092 -34.972,9.138 -57.577,9.138c-21.578,0 -40.073,-3.303 -55.486,-9.908c-15.413,-6.605 -26.789,-14.862 -34.128,-24.77c-7.339,-9.908 -11.009,-19.853 -11.009,-29.835c0,-6.605 2.349,-12.257 7.046,-16.954c4.697,-4.697 10.642,-7.046 17.835,-7.046c6.312,0 11.156,1.541 14.532,4.624c3.376,3.083 6.605,7.413 9.688,12.991c6.165,10.715 13.541,18.715 22.128,24c8.587,5.284 20.293,7.927 35.119,7.927c12.037,0 21.908,-2.679 29.614,-8.037c7.706,-5.358 11.559,-11.486 11.559,-18.385c0,-10.569 -4,-18.275 -12,-23.119c-8,-4.844 -21.174,-9.468 -39.522,-13.871c-20.697,-5.138 -37.541,-10.532 -50.532,-16.183c-12.991,-5.651 -23.376,-13.101 -31.156,-22.348c-7.78,-9.248 -11.67,-20.624 -11.67,-34.128c0,-12.037 3.596,-23.413 10.789,-34.128c7.193,-10.715 17.798,-19.266 31.816,-25.651c14.018,-6.385 30.935,-9.578 50.752,-9.578c15.559,0 29.541,1.615 41.944,4.844c12.404,3.229 22.752,7.56 31.046,12.991c8.293,5.431 14.605,11.449 18.936,18.055c4.33,6.605 6.495,13.064 6.495,19.376c0,6.899 -2.312,12.55 -6.936,16.954c-4.624,4.404 -11.193,6.605 -19.706,6.605c-6.165,0 -11.413,-1.761 -15.743,-5.284c-4.33,-3.523 -9.284,-8.807 -14.862,-15.853c-4.55,-5.871 -9.908,-10.569 -16.073,-14.092c-6.165,-3.523 -14.532,-5.284 -25.101,-5.284c-10.862,0 -19.89,2.312 -27.082,6.936c-7.193,4.624 -10.789,10.385 -10.789,17.284c0,6.312 2.642,11.486 7.927,15.523c5.284,4.037 12.404,7.376 21.358,10.018c8.954,2.642 21.284,5.871 36.99,9.688c18.642,4.55 33.871,9.982 45.688,16.293c11.816,6.312 20.77,13.761 26.862,22.348c6.092,8.587 9.138,18.385 9.138,29.394Z" style="fill:#e6ebf9;fill-rule:nonzero;"/><path d="M1282.994,36.55l0,89.173c7.633,-8.807 15.082,-15.78 22.348,-20.917c7.266,-5.138 15.303,-8.991 24.11,-11.559c8.807,-2.569 18.275,-3.853 28.403,-3.853c15.266,0 28.807,3.229 40.623,9.688c11.816,6.459 21.101,15.853 27.853,28.183c4.257,7.193 7.119,15.229 8.587,24.11c1.468,8.881 2.202,19.119 2.202,30.715l0,115.155c0,12.037 -2.752,21.137 -8.257,27.302c-5.505,6.165 -12.807,9.248 -21.908,9.248c-19.816,0 -29.724,-12.183 -29.724,-36.55l0,-101.503c0,-19.229 -2.862,-34.018 -8.587,-44.366c-5.725,-10.349 -16.587,-15.523 -32.587,-15.523c-10.715,0 -20.367,3.046 -28.954,9.138c-8.587,6.092 -15.009,14.422 -19.266,24.991c-3.229,8.954 -4.844,24.88 -4.844,47.779l0,79.485c0,11.89 -2.679,20.954 -8.037,27.192c-5.358,6.238 -12.807,9.358 -22.348,9.358c-19.816,0 -29.724,-12.183 -29.724,-36.55l0,-260.694c0,-12.183 2.605,-21.321 7.816,-27.413c5.211,-6.092 12.514,-9.138 21.908,-9.138c9.541,0 16.991,3.083 22.348,9.248c5.358,6.165 8.037,15.266 8.037,27.302Z" style="fill:#e6ebf9;fill-rule:nonzero;"/><path d="M1661.265,299.446l0,-5.945c-8.073,9.248 -16.037,16.77 -23.89,22.569c-7.853,5.798 -16.367,10.202 -25.541,13.211c-9.174,3.009 -19.192,4.514 -30.055,4.514c-14.385,0 -27.706,-3.046 -39.963,-9.138c-12.257,-6.092 -22.862,-14.789 -31.816,-26.091c-8.954,-11.303 -15.743,-24.587 -20.367,-39.853c-4.624,-15.266 -6.936,-31.779 -6.936,-49.541c0,-37.578 9.174,-66.862 27.523,-87.852c18.348,-20.991 42.495,-31.486 72.44,-31.486c17.321,0 31.926,2.972 43.816,8.917c11.89,5.945 23.486,15.082 34.789,27.413l0,-88.733c0,-12.33 2.459,-21.651 7.376,-27.963c4.917,-6.312 11.926,-9.468 21.027,-9.468c9.101,0 16.11,2.899 21.027,8.697c4.917,5.798 7.376,14.348 7.376,25.651l0,265.098c0,11.449 -2.642,20.036 -7.927,25.761c-5.284,5.725 -12.11,8.587 -20.477,8.587c-8.22,0 -15.009,-2.972 -20.367,-8.917c-5.358,-5.945 -8.037,-14.422 -8.037,-25.431Zm-118.237,-88.293c0,16.293 2.532,30.165 7.596,41.614c5.064,11.449 12,20.073 20.807,25.871c8.807,5.798 18.422,8.697 28.844,8.697c10.569,0 20.22,-2.752 28.954,-8.257c8.734,-5.505 15.706,-13.945 20.917,-25.321c5.211,-11.376 7.816,-25.578 7.816,-42.605c0,-16 -2.605,-29.761 -7.816,-41.284c-5.211,-11.523 -12.257,-20.33 -21.137,-26.422c-8.881,-6.092 -18.605,-9.138 -29.174,-9.138c-11.009,0 -20.844,3.119 -29.504,9.358c-8.66,6.238 -15.376,15.192 -20.147,26.862c-4.771,11.67 -7.156,25.211 -7.156,40.623Z" style="fill:#e6ebf9;fill-rule:nonzero;"/><path d="M1946.179,226.346l-117.577,0c0.147,13.651 2.899,25.688 8.257,36.11c5.358,10.422 12.477,18.275 21.358,23.559c8.881,5.284 18.679,7.927 29.394,7.927c7.193,0 13.761,-0.844 19.706,-2.532c5.945,-1.688 11.706,-4.33 17.284,-7.927c5.578,-3.596 10.715,-7.449 15.413,-11.559c4.697,-4.11 10.789,-9.688 18.275,-16.734c3.083,-2.642 7.486,-3.963 13.211,-3.963c6.165,0 11.156,1.688 14.972,5.064c3.816,3.376 5.725,8.147 5.725,14.312c0,5.431 -2.128,11.78 -6.385,19.046c-4.257,7.266 -10.679,14.238 -19.266,20.917c-8.587,6.679 -19.376,12.22 -32.367,16.624c-12.991,4.404 -27.926,6.605 -44.807,6.605c-38.605,0 -68.623,-11.009 -90.054,-33.027c-21.431,-22.018 -32.146,-51.889 -32.146,-89.614c0,-17.761 2.642,-34.238 7.927,-49.431c5.284,-15.192 12.991,-28.22 23.119,-39.082c10.128,-10.862 22.605,-19.192 37.431,-24.991c14.826,-5.798 31.266,-8.697 49.321,-8.697c23.486,0 43.633,4.954 60.44,14.862c16.807,9.908 29.394,22.715 37.761,38.422c8.367,15.706 12.55,31.706 12.55,47.999c0,15.119 -4.33,24.917 -12.991,29.394c-8.66,4.477 -20.844,6.716 -36.55,6.716Zm-117.577,-34.128l108.99,0c-1.468,-20.55 -7.009,-35.926 -16.624,-46.128c-9.615,-10.202 -22.275,-15.303 -37.981,-15.303c-14.972,0 -27.266,5.174 -36.88,15.523c-9.615,10.349 -15.449,25.651 -17.504,45.908Z" style="fill:#e6ebf9;fill-rule:nonzero;"/></g><path d="M2170.762,308.914l-43.596,-64.073l-44.697,64.073c-6.459,8.954 -11.926,15.339 -16.403,19.156c-4.477,3.816 -10.165,5.725 -17.064,5.725c-7.633,0 -14.128,-2.385 -19.486,-7.156c-5.358,-4.771 -8.037,-10.238 -8.037,-16.403c0,-6.312 4.11,-15.339 12.33,-27.082l54.385,-77.944l-48.22,-64.953c-8.367,-10.715 -12.55,-20.036 -12.55,-27.963c0,-6.165 2.495,-11.523 7.486,-16.073c4.991,-4.55 11.523,-6.826 19.596,-6.826c7.046,0 12.881,1.982 17.504,5.945c4.624,3.963 10.018,10.202 16.183,18.715l38.972,53.284l37.871,-53.284c6.312,-8.807 11.78,-15.119 16.403,-18.936c4.624,-3.816 10.385,-5.725 17.284,-5.725c7.927,0 14.495,2.239 19.706,6.716c5.211,4.477 7.816,9.871 7.816,16.183c0,4.55 -1.064,8.917 -3.193,13.101c-2.128,4.183 -5.394,9.138 -9.798,14.862l-48.22,64.953l54.385,77.944c8.514,12.183 12.77,21.358 12.77,27.523c0,6.312 -2.642,11.743 -7.927,16.293c-5.284,4.55 -11.816,6.826 -19.596,6.826c-6.899,0 -12.734,-1.982 -17.504,-5.945c-4.771,-3.963 -10.238,-10.275 -16.403,-18.936Z" style="fill:#e6ebf9;fill-rule:nonzero;"/></g></g></g></svg>